<svg width="43" height="22" viewBox="0 0 43 22" fill="none" xmlns="http://www.w3.org/2000/svg">
<path d="M7.74021 12.687C9.64734 12.687 11.2077 11.1266 11.2077 9.21945C11.2077 7.31232 9.64734 5.75193 7.74021 5.75193C5.83307 5.75193 4.27269 7.31232 4.27269 9.21945C4.27269 11.1266 5.83307 12.687 7.74021 12.687ZM9.69936 14.5941C9.05787 14.4901 8.41637 14.4207 7.74021 14.4207C6.02379 14.4207 4.39406 14.7848 2.92036 15.4263C1.63738 15.9811 0.805176 17.2294 0.805176 18.6338V21.3558H8.60709V18.5644C8.60709 17.1254 9.00585 15.7731 9.69936 14.5941ZM35.4803 12.687C37.3875 12.687 38.9479 11.1266 38.9479 9.21945C38.9479 7.31232 37.3875 5.75193 35.4803 5.75193C33.5732 5.75193 32.0128 7.31232 32.0128 9.21945C32.0128 11.1266 33.5732 12.687 35.4803 12.687ZM42.4154 18.6338C42.4154 17.2294 41.5832 15.9811 40.3002 15.4263C38.8265 14.7848 37.1968 14.4207 35.4803 14.4207C34.8042 14.4207 34.1627 14.4901 33.5212 14.5941C34.2147 15.7731 34.6135 17.1254 34.6135 18.5644V21.3558H42.4154V18.6338ZM28.9614 13.8139C26.9329 12.9124 24.4363 12.2535 21.6103 12.2535C18.7842 12.2535 16.2876 12.9297 14.2591 13.8139C12.3867 14.6461 11.2077 16.5186 11.2077 18.5644V21.3558H32.0128V18.5644C32.0128 16.5186 30.8339 14.6461 28.9614 13.8139ZM14.7966 17.8882C14.9526 17.4895 15.022 17.2121 16.3743 16.6919C18.0561 16.0331 19.8245 15.721 21.6103 15.721C23.396 15.721 25.1645 16.0331 26.8462 16.6919C28.1812 17.2121 28.2506 17.4895 28.4239 17.8882H14.7966ZM21.6103 4.01818C22.5638 4.01818 23.344 4.79837 23.344 5.75193C23.344 6.7055 22.5638 7.48569 21.6103 7.48569C20.6567 7.48569 19.8765 6.7055 19.8765 5.75193C19.8765 4.79837 20.6567 4.01818 21.6103 4.01818ZM21.6103 0.550659C18.7322 0.550659 16.409 2.8739 16.409 5.75193C16.409 8.62997 18.7322 10.9532 21.6103 10.9532C24.4883 10.9532 26.8116 8.62997 26.8116 5.75193C26.8116 2.8739 24.4883 0.550659 21.6103 0.550659Z" fill="white"/>
</svg>
